REM DIRINDEX 1\2\4,1\2\5,1\2\6,1\3\7,1\3\8,1\3\9,1\3\10
REM DIRNAME folder01,folder02,folder03,folder04,folder05,folder06,folder07,folder08,folder09,folder10
TITLE ""
FILE "a_50.mp3" MP3
  TRACK 01 AUDIO
    TITLE "0:"
    INDEX 01 00:00:00
  TRACK 02 AUDIO
    TITLE "6:cjc058_1447"
    INDEX 01 00:00:13
  TRACK 03 AUDIO
    TITLE "0:"
    INDEX 01 00:02:51
  TRACK 04 AUDIO
    TITLE "4:cjc058_1448"
    INDEX 01 00:03:25
  TRACK 05 AUDIO
    TITLE "0:"
    INDEX 01 00:04:66
  TRACK 06 AUDIO
    TITLE "5:cjc058_1449"
    INDEX 01 00:05:26
  TRACK 07 AUDIO
    TITLE "0:"
    INDEX 01 00:07:09
  TRACK 08 AUDIO
    TITLE "4:cjc058_1450"
    INDEX 01 00:08:21
  TRACK 09 AUDIO
    TITLE "0:"
    INDEX 01 00:09:47
  TRACK 10 AUDIO
    TITLE "5:cjc058_1451"
    INDEX 01 00:10:08
  TRACK 11 AUDIO
    TITLE "0:"
    INDEX 01 00:12:54
  TRACK 12 AUDIO
    TITLE "4:cjc058_1452"
    INDEX 01 00:13:65
  TRACK 13 AUDIO
    TITLE "0:"
    INDEX 01 00:15:46
  TRACK 14 AUDIO
    TITLE "5:cjc058_1453"
    INDEX 01 00:16:06
  TRACK 15 AUDIO
    TITLE "0:"
    INDEX 01 00:17:55
  TRACK 16 AUDIO
    TITLE "4:cjc058_1454"
    INDEX 01 00:18:64
  TRACK 17 AUDIO
    TITLE "0:"
    INDEX 01 00:20:41
  TRACK 18 AUDIO
    TITLE "5:cjc058_1455"
    INDEX 01 00:21:02
  TRACK 19 AUDIO
    TITLE "0:"
    INDEX 01 00:22:54
  TRACK 20 AUDIO
    TITLE "4:cjc058_1456"
    INDEX 01 00:23:63
  TRACK 21 AUDIO
    TITLE "0:"
    INDEX 01 00:25:45
  TRACK 22 AUDIO
    TITLE "5:cjc058_1457"
    INDEX 01 00:26:05
  TRACK 23 AUDIO
    TITLE "0:"
    INDEX 01 00:27:57
  TRACK 24 AUDIO
    TITLE "4:cjc058_1458"
    INDEX 01 00:28:68
  TRACK 25 AUDIO
    TITLE "0:"
    INDEX 01 00:30:36
  TRACK 26 AUDIO
    TITLE "5:cjc058_1459"
    INDEX 01 00:30:73
  TRACK 27 AUDIO
    TITLE "0:"
    INDEX 01 00:32:43
  TRACK 28 AUDIO
    TITLE "4:cjc058_1460"
    INDEX 01 00:33:52
  TRACK 29 AUDIO
    TITLE "0:"
    INDEX 01 00:35:45
  TRACK 30 AUDIO
    TITLE "5:cjc058_1461"
    INDEX 01 00:36:07
  TRACK 31 AUDIO
    TITLE "0:"
    INDEX 01 00:38:18
  TRACK 32 AUDIO
    TITLE "4:cjc058_1462"
    INDEX 01 00:39:31
  TRACK 33 AUDIO
    TITLE "0:"
    INDEX 01 00:41:16
  TRACK 34 AUDIO
    TITLE "5:cjc058_1463"
    INDEX 01 00:41:51
  TRACK 35 AUDIO
    TITLE "0:"
    INDEX 01 00:43:39
  TRACK 36 AUDIO
    TITLE "4:cjc058_1464"
    INDEX 01 00:44:48
  TRACK 37 AUDIO
    TITLE "0:"
    INDEX 01 00:46:43
  TRACK 38 AUDIO
    TITLE "5:cjc058_1465"
    INDEX 01 00:47:01
  TRACK 39 AUDIO
    TITLE "0:"
    INDEX 01 00:49:63
  TRACK 40 AUDIO
    TITLE "4:cjc058_1466"
    INDEX 01 00:50:74
  TRACK 41 AUDIO
    TITLE "0:"
    INDEX 01 00:52:39
  TRACK 42 AUDIO
    TITLE "5:cjc058_1467"
    INDEX 01 00:53:02
  TRACK 43 AUDIO
    TITLE "0:"
    INDEX 01 00:56:16
  TRACK 44 AUDIO
    TITLE "4:cjc058_1468"
    INDEX 01 00:57:25
  TRACK 45 AUDIO
    TITLE "0:"
    INDEX 01 00:58:66
  TRACK 46 AUDIO
    TITLE "5:cjc058_1469"
    INDEX 01 00:59:26
  TRACK 47 AUDIO
    TITLE "0:"
    INDEX 01 01:01:03
  TRACK 48 AUDIO
    TITLE "4:cjc058_1470"
    INDEX 01 01:02:14
  TRACK 49 AUDIO
    TITLE "0:"
    INDEX 01 01:03:57
  TRACK 50 AUDIO
    TITLE "5:cjc058_1471"
    INDEX 01 01:04:17
  TRACK 51 AUDIO
    TITLE "0:"
    INDEX 01 01:05:68
  TRACK 52 AUDIO
    TITLE "4:cjc058_1472"
    INDEX 01 01:07:04
  TRACK 53 AUDIO
    TITLE "0:"
    INDEX 01 01:08:54
  TRACK 54 AUDIO
    TITLE "5:cjc058_1473"
    INDEX 01 01:09:10
  TRACK 55 AUDIO
    TITLE "0:"
    INDEX 01 01:10:51
  TRACK 56 AUDIO
    TITLE "4:cjc058_1474"
    INDEX 01 01:11:60
  TRACK 57 AUDIO
    TITLE "0:"
    INDEX 01 01:13:44
  TRACK 58 AUDIO
    TITLE "5:cjc058_1475"
    INDEX 01 01:14:04
  TRACK 59 AUDIO
    TITLE "0:"
    INDEX 01 01:15:52
  TRACK 60 AUDIO
    TITLE "4:cjc058_1476"
    INDEX 01 01:16:60
  TRACK 61 AUDIO
    TITLE "0:"
    INDEX 01 01:18:72
  TRACK 62 AUDIO
    TITLE "5:cjc058_1477"
    INDEX 01 01:19:32
  TRACK 63 AUDIO
    TITLE "0:"
    INDEX 01 01:23:42
  TRACK 64 AUDIO
    TITLE "4:cjc058_1478"
    INDEX 01 01:24:49
  TRACK 65 AUDIO
    TITLE "0:"
    INDEX 01 01:26:27
  TRACK 66 AUDIO
    TITLE "5:cjc058_1479"
    INDEX 01 01:26:60
  TRACK 67 AUDIO
    TITLE "0:"
    INDEX 01 01:28:10
  TRACK 68 AUDIO
    TITLE "4:cjc058_1480"
    INDEX 01 01:29:19
  TRACK 69 AUDIO
    TITLE "0:"
    INDEX 01 01:30:34
  TRACK 70 AUDIO
    TITLE "5:cjc058_1481"
    INDEX 01 01:30:66
  TRACK 71 AUDIO
    TITLE "0:"
    INDEX 01 01:33:42
  TRACK 72 AUDIO
    TITLE "4:cjc058_1482"
    INDEX 01 01:34:54
  TRACK 73 AUDIO
    TITLE "0:"
    INDEX 01 01:36:21
  TRACK 74 AUDIO
    TITLE "5:cjc058_1483"
    INDEX 01 01:36:56
  TRACK 75 AUDIO
    TITLE "0:"
    INDEX 01 01:39:45
